<svg xmlns="http://www.w3.org/2000/svg" width="50" height="50" viewBox="0 0 50 50">
    <g fill="none" fill-rule="nonzero">
        <circle cx="24.956" cy="24.956" r="24.956" fill="#FF296C"/>
        <path fill="#E00061" d="M45.858 11.347L23.787 34.198l.039 2.457h1.014l23.903-19.263c-.702-2.145-1.676-4.212-2.885-6.045z"/>
        <path fill="#FFF" d="M49.445 10.256L45.04 5.888c-.585-.585-1.56-.585-2.184 0L24.021 25.347l-8.15-8.033c-.585-.585-1.56-.585-2.184 0l-3.9 3.86a1.53 1.53 0 0 0 0 2.145l13.025 12.907c.35.351.819.468 1.287.429.468.039.936-.078 1.287-.429l24.06-23.787c.584-.624.584-1.599 0-2.183z"/>
        <path fill="#E6E5E3" d="M25.386 36.226l24.06-23.787a1.53 1.53 0 0 0 0-2.144l-.703-.663L24.06 33.886 10.412 20.59l-.585.585a1.53 1.53 0 0 0 0 2.145L22.85 36.226c.35.351.819.468 1.287.429.429.039.897-.078 1.248-.429z"/>
    </g>
</svg>
